<mxfile host="Electron" modified="2025-04-27T18:17:22.236Z" agent="Mozilla/5.0 (Macintosh; Intel Mac OS X 10_15_7) AppleWebKit/537.36 (KHTML, like Gecko) draw.io/22.1.2 Chrome/114.0.5735.289 Electron/25.9.4 Safari/537.36" etag="w3GhFGrLeXcTEZ-mez_t" version="22.1.2" type="device">
  <diagram name="第 1 页" id="9GNlFFx4VbFym6jYnEQe">
    <mxGraphModel dx="992" dy="758" grid="1" gridSize="10" guides="1" tooltips="1" connect="1" arrows="1" fold="1" page="1" pageScale="1" pageWidth="827" pageHeight="1169" math="0" shadow="0">
      <root>
        <mxCell id="0" />
        <mxCell id="1" parent="0" />
        <mxCell id="QEvIJqx1-Zs-0RxvxSQE-15" value="" style="rounded=0;whiteSpace=wrap;html=1;fontFamily=Courier New;fillColor=#fff2cc;strokeColor=#d6b656;fontStyle=1;fontSize=15;" vertex="1" parent="1">
          <mxGeometry x="160" y="250" width="350" height="240" as="geometry" />
        </mxCell>
        <mxCell id="QEvIJqx1-Zs-0RxvxSQE-11" value="&lt;font style=&quot;font-size: 17px;&quot; color=&quot;#00994d&quot;&gt;前端&lt;/font&gt;" style="rounded=0;whiteSpace=wrap;html=1;fontFamily=Courier New;fillColor=#d5e8d4;strokeColor=#82b366;fontStyle=1;fontSize=15;" vertex="1" parent="1">
          <mxGeometry x="110" y="110" width="450" height="100" as="geometry" />
        </mxCell>
        <mxCell id="QEvIJqx1-Zs-0RxvxSQE-6" style="edgeStyle=orthogonalEdgeStyle;rounded=0;orthogonalLoop=1;jettySize=auto;html=1;entryX=0;entryY=0.5;entryDx=0;entryDy=0;curved=1;fontFamily=Courier New;fontStyle=1;fontSize=15;strokeColor=#027ffe;" edge="1" parent="1" source="QEvIJqx1-Zs-0RxvxSQE-1" target="QEvIJqx1-Zs-0RxvxSQE-3">
          <mxGeometry relative="1" as="geometry" />
        </mxCell>
        <mxCell id="QEvIJqx1-Zs-0RxvxSQE-8" value="HTTP请求" style="edgeLabel;html=1;align=center;verticalAlign=middle;resizable=0;points=[];fontFamily=Courier New;fontStyle=1;fontSize=15;labelBackgroundColor=default;fontColor=#007FFF;" vertex="1" connectable="0" parent="QEvIJqx1-Zs-0RxvxSQE-6">
          <mxGeometry x="-0.3955" y="1" relative="1" as="geometry">
            <mxPoint as="offset" />
          </mxGeometry>
        </mxCell>
        <mxCell id="QEvIJqx1-Zs-0RxvxSQE-1" value="顾客小程序" style="rounded=1;whiteSpace=wrap;html=1;fontFamily=Courier New;fillColor=#dae8fc;strokeColor=#6c8ebf;fontStyle=1;fontSize=15;fontColor=#007FFF;" vertex="1" parent="1">
          <mxGeometry x="150" y="130" width="120" height="60" as="geometry" />
        </mxCell>
        <mxCell id="QEvIJqx1-Zs-0RxvxSQE-7" style="edgeStyle=orthogonalEdgeStyle;rounded=0;orthogonalLoop=1;jettySize=auto;html=1;entryX=1;entryY=0.5;entryDx=0;entryDy=0;curved=1;fontFamily=Courier New;fontStyle=1;fontSize=15;strokeColor=#027ffe;" edge="1" parent="1" source="QEvIJqx1-Zs-0RxvxSQE-2" target="QEvIJqx1-Zs-0RxvxSQE-3">
          <mxGeometry relative="1" as="geometry" />
        </mxCell>
        <mxCell id="QEvIJqx1-Zs-0RxvxSQE-9" value="HTTP请求" style="edgeLabel;html=1;align=center;verticalAlign=middle;resizable=0;points=[];fontFamily=Courier New;fontStyle=1;fontSize=15;labelBackgroundColor=default;fontColor=#007FFF;" vertex="1" connectable="0" parent="QEvIJqx1-Zs-0RxvxSQE-7">
          <mxGeometry x="-0.4354" y="-1" relative="1" as="geometry">
            <mxPoint as="offset" />
          </mxGeometry>
        </mxCell>
        <mxCell id="QEvIJqx1-Zs-0RxvxSQE-2" value="商家管理端" style="rounded=1;whiteSpace=wrap;html=1;fontFamily=Courier New;fillColor=#dae8fc;strokeColor=#6c8ebf;fontStyle=1;fontSize=15;fontColor=#007FFF;" vertex="1" parent="1">
          <mxGeometry x="400" y="130" width="120" height="60" as="geometry" />
        </mxCell>
        <mxCell id="QEvIJqx1-Zs-0RxvxSQE-5" value="" style="edgeStyle=orthogonalEdgeStyle;rounded=0;orthogonalLoop=1;jettySize=auto;html=1;fontFamily=Courier New;fontStyle=1;fontSize=15;fontColor=#FF8000;strokeColor=#FF8000;" edge="1" parent="1" source="QEvIJqx1-Zs-0RxvxSQE-3" target="QEvIJqx1-Zs-0RxvxSQE-4">
          <mxGeometry relative="1" as="geometry" />
        </mxCell>
        <mxCell id="QEvIJqx1-Zs-0RxvxSQE-10" value="连接池" style="edgeLabel;html=1;align=center;verticalAlign=middle;resizable=0;points=[];fontFamily=Courier New;fontStyle=1;fontSize=15;labelBackgroundColor=#fff2cc;fontColor=#FF8000;" vertex="1" connectable="0" parent="QEvIJqx1-Zs-0RxvxSQE-5">
          <mxGeometry x="-0.1161" y="1" relative="1" as="geometry">
            <mxPoint as="offset" />
          </mxGeometry>
        </mxCell>
        <mxCell id="QEvIJqx1-Zs-0RxvxSQE-3" value="Node.js + Express&lt;br style=&quot;font-size: 15px;&quot;&gt;REST API" style="rounded=1;whiteSpace=wrap;html=1;fontFamily=Courier New;fillColor=#ffe6cc;strokeColor=#d79b00;fontStyle=1;fontSize=15;fontColor=#FF8000;" vertex="1" parent="1">
          <mxGeometry x="250" y="260" width="170" height="60" as="geometry" />
        </mxCell>
        <mxCell id="QEvIJqx1-Zs-0RxvxSQE-4" value="MySQL数据库" style="rounded=1;whiteSpace=wrap;html=1;fontFamily=Courier New;fillColor=#f5f5f5;fontColor=#333333;strokeColor=#666666;fontStyle=1;fontSize=15;" vertex="1" parent="1">
          <mxGeometry x="275" y="380" width="120" height="60" as="geometry" />
        </mxCell>
        <mxCell id="QEvIJqx1-Zs-0RxvxSQE-17" value="&lt;b&gt;&lt;font color=&quot;#ea6b66&quot; style=&quot;font-size: 17px;&quot;&gt;后端&lt;/font&gt;&lt;/b&gt;" style="text;html=1;strokeColor=none;fillColor=none;align=center;verticalAlign=middle;whiteSpace=wrap;rounded=0;" vertex="1" parent="1">
          <mxGeometry x="305" y="440" width="60" height="30" as="geometry" />
        </mxCell>
      </root>
    </mxGraphModel>
  </diagram>
</mxfile>
